<svg width="520" height="520" viewBox="0 0 520 520" fill="none" xmlns="http://www.w3.org/2000/svg">
<g filter="url(#filter0_dd_6_2)">
<g clip-path="url(#clip0_6_2)">
<path d="M4 4.80307C4 3.02486 6.14686 2.13089 7.40893 3.38358L269.555 263.581C270.822 264.838 269.931 267 268.146 267H6.00001C4.89544 267 4 266.105 4 265V4.80307Z" fill="#6F6F6F"/>
<path d="M4.00001 284C4.00001 282.895 4.89544 282 6.00001 282H284.944C285.474 282 285.982 282.21 286.357 282.585L512.582 508.585C513.843 509.845 512.95 512 511.168 512H257.423H6C4.89543 512 4 511.105 4 510L4.00001 284Z" fill="#4F4F4F"/>
</g>
</g>
<defs>
<filter id="filter0_dd_6_2" x="0" y="0" width="520" height="520" filterUnits="userSpaceOnUse" color-interpolation-filters="sRGB">
<feFlood flood-opacity="0" result="BackgroundImageFix"/>
<feColorMatrix in="SourceAlpha" type="matrix" values="0 0 0 0 0 0 0 0 0 0 0 0 0 0 0 0 0 0 127 0" result="hardAlpha"/>
<feOffset dy="4"/>
<feGaussianBlur stdDeviation="2"/>
<feComposite in2="hardAlpha" operator="out"/>
<feColorMatrix type="matrix" values="0 0 0 0 0 0 0 0 0 0 0 0 0 0 0 0 0 0 0.25 0"/>
<feBlend mode="normal" in2="BackgroundImageFix" result="effect1_dropShadow_6_2"/>
<feColorMatrix in="SourceAlpha" type="matrix" values="0 0 0 0 0 0 0 0 0 0 0 0 0 0 0 0 0 0 127 0" result="hardAlpha"/>
<feOffset dy="4"/>
<feGaussianBlur stdDeviation="2"/>
<feComposite in2="hardAlpha" operator="out"/>
<feColorMatrix type="matrix" values="0 0 0 0 0 0 0 0 0 0 0 0 0 0 0 0 0 0 0.25 0"/>
<feBlend mode="normal" in2="effect1_dropShadow_6_2" result="effect2_dropShadow_6_2"/>
<feBlend mode="normal" in="SourceGraphic" in2="effect2_dropShadow_6_2" result="shape"/>
</filter>
<clipPath id="clip0_6_2">
<rect x="4" width="512" height="512" rx="256" fill="white"/>
</clipPath>
</defs>
</svg>
